<svg width="351" height="23" viewBox="0 0 351 23" fill="none" xmlns="http://www.w3.org/2000/svg">
<path d="M0.299225 0.605469H37.6234V13.0469H2.78751L37.6234 20.5117V23L2.78751 15.5352V23H0.299225V10.5586H35.1352V3.09375H0.299225V0.605469ZM79.8328 23H42.5086V0.605469H79.8328V3.09375H44.9969V10.5586H79.8328V13.0469H44.9969V20.5117H79.8328V23ZM84.718 23V0.605469H87.2063L119.554 20.5117V0.605469H122.042V23H119.554L87.2063 3.09375V23H84.718ZM129.416 3.09375V20.5117H161.763V3.09375H129.416ZM164.252 23H126.927V0.605469H164.252V23ZM169.137 0.605469H171.625L187.824 20.1562L188.027 20.3594L203.973 0.605469H206.461L188.637 23H187.012L169.137 0.605469ZM213.834 3.09375V13.0469H246.182V3.09375H213.834ZM248.67 23H246.182V15.5352H213.834V23H211.346V0.605469H248.67V23ZM253.555 0.605469H290.88V3.09375H273.462V23H270.973V3.09375H253.555V0.605469ZM300.741 23V0.605469H303.23V23H300.741ZM315.58 3.09375V20.5117H347.927V3.09375H315.58ZM350.416 23H313.091V0.605469H350.416V23Z" fill="white"/>
</svg>
